<svg id="image-icon" xmlns="http://www.w3.org/2000/svg">
	<path 
		d="M.39,45.38V3.53H49.28V45.38ZM46,36.77a4.75,4.75,0,0,0,.22-.87c0-8.88,0-17.75,0-26.63,0-2-1.05-2.24-2.67-2.23-12.32,0-24.64,0-37,0-2,0-2.7.68-2.69,2.69.08,8.43,0,16.87,0,25.3,0,.47.1.93.19,1.72.8-.93,1.37-1.59,1.93-2.26L17.12,21.09c1.95-2.34,3.07-2.36,5.16-.1,1.5,1.61,3,3.24,4.48,4.85,2,2.12,2.41,2.14,4.7.24s2.65-2,4.83.32Z"
		style="fill:#03fcdf;stroke-width:0.2;stroke-miterlimit:4;stroke-dasharray:none"/>
	<path 
		d="M42.67,15.78a5.28,5.28,0,1,1-5.41-5.2A5.32,5.32,0,0,1,42.67,15.78Z" 
		style="fill:#03fcdf;stroke-width:0.2;stroke-miterlimit:4;stroke-dasharray:none"
		cx="43.0594" cy="41.7372" r="5.9367"/>
</svg>